HIERARCHY
ROOT root
{
	OFFSET	0	13.1	24.9
	CHANNELS 6  Xposition Yposition Zposition Xrotation Yrotation Zrotation
	JOINT spine_1
	{
		OFFSET	0	9.99999	0
		CHANNELS 3  Xrotation Yrotation Zrotation
		JOINT spine_2
		{
			OFFSET	0	112	-10
			CHANNELS 3  Xrotation Yrotation Zrotation
			JOINT spine_3
			{
				OFFSET	0	206.5	19.3
				CHANNELS 3  Xrotation Yrotation Zrotation
				JOINT spine_4
				{
					OFFSET	0	110.4	14.6
					CHANNELS 3  Xrotation Yrotation Zrotation
					JOINT neck_1
					{
						OFFSET	0	71.8	-50.3
						CHANNELS 3  Xrotation Yrotation Zrotation
						JOINT neck_2
						{
							OFFSET	0	86.2	-25.8
							CHANNELS 3  Xrotation Yrotation Zrotation
							JOINT head_ee
							{
								OFFSET	0	179.8	-8.7
								CHANNELS 3  Xrotation Yrotation Zrotation
								End Site
								{
									OFFSET	1	0	0
								}
							}
						}
					}
					JOINT left_clavicle
					{
						OFFSET	-43.2	22.4	-70.8
						CHANNELS 3  Xrotation Yrotation Zrotation
						JOINT left_shoulder
						{
							OFFSET	-93.9	-5.79999	48.7
							CHANNELS 3  Xrotation Yrotation Zrotation
							JOINT left_elbow
							{
								OFFSET	-291.4	-30.8	15.2
								CHANNELS 3  Xrotation Yrotation Zrotation
								JOINT left_lowarm_twist
								{
									OFFSET	-110.7	-3.89999	13.6
									CHANNELS 3  Xrotation Yrotation Zrotation
									JOINT left_hand
									{
										OFFSET	-110.7	-3.89999	13.6
										CHANNELS 3  Xrotation Yrotation Zrotation
										JOINT left_ee
										{
											OFFSET	-80.8	-5.10001	12.1
											CHANNELS 3  Xrotation Yrotation Zrotation
											End Site
											{
												OFFSET	1	0	0
											}
										}
									}
								}
							}
						}
					}
					JOINT right_clavicle
					{
						OFFSET	43.2	22.4	-70.8
						CHANNELS 3  Xrotation Yrotation Zrotation
						JOINT right_shoulder
						{
							OFFSET	93.9	-5.79999	48.7
							CHANNELS 3  Xrotation Yrotation Zrotation
							JOINT right_elbow
							{
								OFFSET	291.4	-30.8	15.2
								CHANNELS 3  Xrotation Yrotation Zrotation
								JOINT right_lowarm_twist
								{
									OFFSET	110.7	-3.89999	13.6
									CHANNELS 3  Xrotation Yrotation Zrotation
									JOINT right_hand
									{
										OFFSET	110.7	-3.89999	13.6
										CHANNELS 3  Xrotation Yrotation Zrotation
										JOINT right_ee
										{
											OFFSET	80.8	-5.10001	12.1
											CHANNELS 3  Xrotation Yrotation Zrotation
											End Site
											{
												OFFSET	1	0	0
											}
										}
									}
								}
							}
						}
					}
				}
			}
		}
	}
	JOINT left_hip
	{
		OFFSET	-82.8	-127.5	0.300001
		CHANNELS 3  Xrotation Yrotation Zrotation
		JOINT left_knee
		{
			OFFSET	-28.2	-396.7	2.2
			CHANNELS 3  Xrotation Yrotation Zrotation
			JOINT left_ankle
			{
				OFFSET	-11.7	-411.3	35.4
				CHANNELS 3  Xrotation Yrotation Zrotation
				JOINT left_toes
				{
					OFFSET	0	-60	-88.6
					CHANNELS 3  Xrotation Yrotation Zrotation
					JOINT left_foot_ee
					{
						OFFSET	-22.5	-16.5	-42.2
						CHANNELS 3  Xrotation Yrotation Zrotation
						End Site
						{
							OFFSET	1	0	0
						}
					}
				}
			}
		}
	}
	JOINT right_hip
	{
		OFFSET	82.8	-127.5	0.300001
		CHANNELS 3  Xrotation Yrotation Zrotation
		JOINT right_knee
		{
			OFFSET	28.2	-396.7	2.2
			CHANNELS 3  Xrotation Yrotation Zrotation
			JOINT right_ankle
			{
				OFFSET	11.7	-411.3	35.4
				CHANNELS 3  Xrotation Yrotation Zrotation
				JOINT right_toes
				{
					OFFSET	0	-60	-88.6
					CHANNELS 3  Xrotation Yrotation Zrotation
					JOINT right_foot_ee
					{
						OFFSET	22.5	-16.5	-42.2
						CHANNELS 3  Xrotation Yrotation Zrotation
						End Site
						{
							OFFSET	1	0	0
						}
					}
				}
			}
		}
	}
}
MOTION
Frames: 9
Frame Time: 0.02
368.112626179 731.958 -1213.85514038 -88.6015767598 -85.6255077967 -89.9115461698 0.151998 -0.00127126 -0.296179 0.152047 0.0175779 -0.295659 0.151973 0.0785694 -0.28557 0.151861 0.032483 -0.294395 -6.15375 -9.10588 -2.35975 -6.12565 -15.1238 -4.10665 -0.0 0.0 -0.0 12.2333 -25.7071 23.9474 -4.5589 -5.1559 59.7136 0.632616 -17.4 0.0968048 27.5537 0.135462 -3.48343 7.22362 -15.2833 46.4481 -0.0 0.0 -0.0 7.20096 -6.36337 -13.8814 -4.77602 3.06727 -59.4674 1.22754 31.3019 -0.343924 36.3002 0.170941 4.55733 1.86833 -8.65445 -15.8747 0.0 0.0 0.0 12.8795 9.94069 3.48041 -17.4106 0.317475 2.6427 -8.08764 29.3125 1.28507 -35.9669 0.0 0.0 -0.0 0.0 -0.0 30.6605 -32.7994 16.4971 -37.5775 0.319884 -5.65614 37.5405 -27.0791 4.99302 40.1752 -0.0 -0.0 0.0 0.0 0.0 
380.119909099 733.837 -1218.1384528 -118.273419735 -84.6674213992 -119.884277358 0.364466 -0.125654 -0.289234 0.364506 -0.106994 -0.296643 0.36509 -0.0442485 -0.312229 0.364966 -0.0930037 -0.301323 -4.82022 -7.86365 -2.52192 -4.77619 -12.5498 -3.91088 -0.0 0.0 -0.0 12.5584 -26.9217 24.5501 -5.08473 -8.11788 59.0743 0.812094 -21.9142 0.157226 25.8064 0.176818 -3.26407 9.00334 -23.0463 56.6291 -0.0 0.0 -0.0 6.72272 -8.76016 -12.927 -7.30034 4.33473 -60.1465 1.32518 33.2815 -0.396096 34.7772 0.105837 4.37385 1.95539 -4.35274 -14.8768 0.0 0.0 0.0 11.4655 10.705 4.19372 -16.0119 0.321808 2.42814 -7.76321 30.2467 1.24075 -39.7248 0.0 0.0 -0.0 0.0 -0.0 29.6207 -28.7732 15.1031 -35.6484 0.213381 -5.37953 42.2068 -22.9543 5.30864 40.1457 -0.0 -0.0 0.0 0.0 0.0 
388.609616627 737.799 -1219.39053054 -136.610367043 -83.4137571249 -138.258506365 0.312806 0.0590032 -0.402372 0.312892 0.0844874 -0.397802 0.312321 0.164186 -0.372059 0.312143 0.103366 -0.393319 -2.86614 -5.60028 -2.61027 -2.82857 -8.13161 -3.51794 -0.0 0.0 -0.0 12.8 -27.009 25.0943 -2.93563 -5.50702 60.2273 0.875937 -23.4564 0.181851 19.0009 0.273674 -2.40066 8.19659 -24.0358 47.6154 -0.0 0.0 -0.0 6.82661 -9.71127 -13.0819 -10.7436 5.67274 -59.9318 1.41431 35.0135 -0.446135 39.2819 0.31244 4.91133 0.809614 -6.26379 -7.92749 0.0 0.0 0.0 9.98215 10.6183 4.56891 -14.8337 0.321393 2.24738 -8.03245 30.604 1.28748 -40.1222 0.0 0.0 -0.0 0.0 -0.0 27.6297 -22.7472 12.8112 -28.9385 -0.0832564 -4.39326 41.8717 -14.6976 5.09216 40.1087 -0.0 -0.0 0.0 0.0 0.0 
394.959157572 737.152 -1213.82004761 -143.209788598 -82.2521657678 -144.807162443 0.358043 -0.0793011 -0.431564 0.358145 -0.0516791 -0.435736 0.358586 0.0383219 -0.437113 0.35832 -0.0311922 -0.437679 -2.45065 -4.65051 -1.61492 -2.42496 -7.15277 -2.32837 -0.0 0.0 -0.0 12.7224 -28.4515 24.7301 -0.911782 -8.49281 58.2733 0.910363 -24.2735 0.19578 13.8925 0.278723 -1.74842 8.92735 -24.1467 54.4884 -0.0 0.0 -0.0 6.27332 -12.2249 -12.0207 -15.4684 5.18404 -61.888 1.5117 36.8253 -0.503273 45.4612 0.663364 5.61926 1.3162 2.58215 -7.7727 0.0 0.0 0.0 9.84922 10.4417 3.59791 -16.1899 0.321548 2.45545 -6.09338 29.5544 0.966866 -40.1741 0.0 0.0 -0.0 0.0 -0.0 29.42 -18.9047 12.7332 -26.8635 -0.151364 -4.0821 40.7293 -2.80165 4.92351 40.1223 -0.0 -0.0 0.0 0.0 0.0 
409.181823725 734.762 -1208.14840903 -153.993557472 -80.5730663692 -155.153507461 0.288857 -0.120892 -0.460313 0.28897 -0.0913569 -0.467073 0.289778 0.00644374 -0.47588 0.289469 -0.0687926 -0.470925 -1.11302 -3.22171 -2.02607 -1.0963 -4.15435 -2.53777 -0.0 0.0 -0.0 13.3193 -27.4713 26.2324 -1.35292 -6.38936 55.1033 1.2113 -30.9644 0.33553 13.853 0.278536 -1.74339 8.77591 -25.1643 51.8022 -0.0 0.0 -0.0 6.04789 -14.9094 -11.5437 -21.1856 8.24876 -61.8236 1.46518 35.9703 -0.47567 46.9178 0.757096 5.7804 2.57302 13.2825 -11.7413 0.0 0.0 0.0 7.81777 9.86221 3.16174 -14.4452 0.320441 2.18778 -10.7702 29.6773 1.72143 -40.1376 0.0 0.0 -0.0 0.0 -0.0 30.0407 -18.9611 12.737 -28.5485 -0.0969197 -4.33495 40.33 3.81712 4.94315 39.3759 -0.0 -0.0 0.0 0.0 0.0 
420.47364377 734.119 -1203.02646689 -156.549570165 -78.7112225986 -157.948213608 0.483954 -0.190749 -0.443417 0.484049 -0.162147 -0.454656 0.485401 -0.0670226 -0.478028 0.48511 -0.141676 -0.461445 -2.60506 -0.185508 -1.74427 -2.59524 1.03297 -1.84811 -0.0 0.0 -0.0 13.2686 -27.2828 26.1398 4.14949 -5.97269 53.1218 1.30279 -32.8352 0.383882 7.90017 0.210622 -0.986384 8.85385 -25.3777 52.3078 -0.0 0.0 -0.0 6.24954 -15.4146 -11.8549 -21.1945 8.90303 -61.6277 1.12309 29.0883 -0.291383 52.3542 1.14245 6.35976 4.28728 18.5927 -21.0124 0.0 0.0 0.0 6.98294 20.4897 2.46962 -11.1848 0.296535 1.68815 -16.0817 29.308 2.57716 -40.1448 0.0 0.0 -0.0 0.0 -0.0 30.6682 -17.7211 11.6536 -24.6022 -0.212694 -3.74051 31.7813 15.6539 4.381 21.687 -0.0 -0.0 0.0 0.0 0.0 
420.488332389 734.119 -1203.36525079 -155.134383682 -79.3235463134 -156.506647806 0.483954 -0.190749 -0.443417 0.484049 -0.162147 -0.454656 0.485401 -0.0670226 -0.478028 0.48511 -0.141676 -0.461445 -2.60506 -0.185508 -1.74427 -2.59524 1.03297 -1.84811 -0.0 0.0 -0.0 13.2686 -27.2828 26.1398 4.14949 -5.97269 53.1218 1.30279 -32.8352 0.383882 7.90017 0.210622 -0.986384 8.85385 -25.3777 52.3078 -0.0 0.0 -0.0 6.24954 -15.4146 -11.8549 -21.1945 8.90303 -61.6277 1.12309 29.0883 -0.291383 52.3542 1.14245 6.35976 4.28728 18.5927 -21.0124 0.0 0.0 0.0 6.98294 20.4897 2.46962 -11.1848 0.296535 1.68815 -16.0817 29.308 2.57716 -40.1448 0.0 0.0 -0.0 0.0 -0.0 30.6682 -17.7211 11.6536 -24.6022 -0.212694 -3.74051 31.7813 15.6539 4.381 21.687 -0.0 -0.0 0.0 0.0 0.0 
420.5054497 734.119 -1204.018878 -151.893260058 -80.4821320961 -153.214731519 0.483954 -0.190749 -0.443417 0.484049 -0.162147 -0.454656 0.485401 -0.0670226 -0.478028 0.48511 -0.141676 -0.461445 -2.60506 -0.185508 -1.74427 -2.59524 1.03297 -1.84811 -0.0 0.0 -0.0 13.2686 -27.2828 26.1398 4.14949 -5.97269 53.1218 1.30279 -32.8352 0.383882 7.90017 0.210622 -0.986384 8.85385 -25.3777 52.3078 -0.0 0.0 -0.0 6.24954 -15.4146 -11.8549 -21.1945 8.90303 -61.6277 1.12309 29.0883 -0.291383 52.3542 1.14245 6.35976 4.28728 18.5927 -21.0124 0.0 0.0 0.0 6.98294 20.4897 2.46962 -11.1848 0.296535 1.68815 -16.0817 29.308 2.57716 -40.1448 0.0 0.0 -0.0 0.0 -0.0 30.6682 -17.7211 11.6536 -24.6022 -0.212694 -3.74051 31.7813 15.6539 4.381 21.687 -0.0 -0.0 0.0 0.0 0.0 
432.216753828 737.599 -1208.05119419 -162.584067266 -78.5265762224 -164.328336417 0.200465 -0.131213 -0.415427 0.200555 -0.104513 -0.422934 0.201384 -0.0148193 -0.435403 0.201129 -0.0833965 -0.427599 -2.54519 -0.55243 -1.64364 -2.53742 0.290633 -1.79482 -0.0 0.0 -0.0 13.6783 -27.1847 27.102 4.067 -4.25349 51.7389 1.4633 -35.9352 0.474562 0.868165 0.0297792 -0.10688 8.83077 -25.1305 52.3705 -0.0 0.0 -0.0 6.58474 -15.3568 -12.4096 -23.4108 10.9189 -59.334 1.2748 32.271 -0.368823 47.1927 0.775245 5.81055 3.23064 14.5796 -15.6693 0.0 0.0 0.0 5.76086 8.64753 4.17381 -13.585 0.316896 2.05584 -20.7127 29.6071 3.33416 -40.133 0.0 0.0 -0.0 0.0 -0.0 31.3955 -16.7388 11.3744 -20.1504 -0.293821 -3.06236 18.9083 19.9381 2.91461 28.9874 -0.0 -0.0 0.0 0.0 0.0 
